<svg width="160" height="160" viewBox="0 0 160 160" fill="none" xmlns="http://www.w3.org/2000/svg">
<path d="M39 114C44.6667 109.667 51 106.25 58 103.75C65 101.25 72.3333 100 80 100C87.6667 100 95 101.25 102 103.75C109 106.25 115.333 109.667 121 114C124.889 109.444 127.917 104.278 130.083 98.5C132.25 92.7222 133.333 86.5555 133.333 80C133.333 65.2222 128.139 52.6389 117.75 42.25C107.361 31.8611 94.7778 26.6667 80 26.6667C65.2222 26.6667 52.6389 31.8611 42.25 42.25C31.8611 52.6389 26.6667 65.2222 26.6667 80C26.6667 86.5555 27.75 92.7222 29.9167 98.5C32.0833 104.278 35.1111 109.444 39 114ZM80 86.6667C73.4444 86.6667 67.9167 84.4167 63.4167 79.9167C58.9167 75.4167 56.6667 69.8889 56.6667 63.3333C56.6667 56.7778 58.9167 51.25 63.4167 46.75C67.9167 42.25 73.4444 40 80 40C86.5555 40 92.0833 42.25 96.5833 46.75C101.083 51.25 103.333 56.7778 103.333 63.3333C103.333 69.8889 101.083 75.4167 96.5833 79.9167C92.0833 84.4167 86.5555 86.6667 80 86.6667ZM80 146.667C70.7778 146.667 62.1111 144.917 54 141.417C45.8889 137.917 38.8333 133.167 32.8333 127.167C26.8333 121.167 22.0833 114.111 18.5833 106C15.0833 97.8889 13.3333 89.2222 13.3333 80C13.3333 70.7778 15.0833 62.1111 18.5833 54C22.0833 45.8889 26.8333 38.8333 32.8333 32.8333C38.8333 26.8333 45.8889 22.0833 54 18.5833C62.1111 15.0833 70.7778 13.3333 80 13.3333C89.2222 13.3333 97.8889 15.0833 106 18.5833C114.111 22.0833 121.167 26.8333 127.167 32.8333C133.167 38.8333 137.917 45.8889 141.417 54C144.917 62.1111 146.667 70.7778 146.667 80C146.667 89.2222 144.917 97.8889 141.417 106C137.917 114.111 133.167 121.167 127.167 127.167C121.167 133.167 114.111 137.917 106 141.417C97.8889 144.917 89.2222 146.667 80 146.667Z" fill="#1D1B20"/>
</svg>
