<svg width="80" height="80" viewBox="0 0 80 80" fill="none" xmlns="http://www.w3.org/2000/svg">
<path d="M36.6666 56.6667H43.3333V43.3334H56.6666V36.6667H43.3333V23.3334H36.6666V36.6667H23.3333V43.3334H36.6666V56.6667ZM40 73.3334C35.3888 73.3334 31.0555 72.4722 27 70.75C22.9444 68.9722 19.4166 66.5833 16.4166 63.5833C13.4166 60.5833 11.0277 57.0556 9.24996 53C7.52774 48.9445 6.66663 44.6111 6.66663 40C6.66663 35.3889 7.52774 31.0556 9.24996 27C11.0277 22.9445 13.4166 19.4167 16.4166 16.4167C19.4166 13.4167 22.9444 11.0556 27 9.33335C31.0555 7.55558 35.3888 6.66669 40 6.66669C44.6111 6.66669 48.9444 7.55558 53 9.33335C57.0555 11.0556 60.5833 13.4167 63.5833 16.4167C66.5833 19.4167 68.9444 22.9445 70.6666 27C72.4444 31.0556 73.3333 35.3889 73.3333 40C73.3333 44.6111 72.4444 48.9445 70.6666 53C68.9444 57.0556 66.5833 60.5833 63.5833 63.5833C60.5833 66.5833 57.0555 68.9722 53 70.75C48.9444 72.4722 44.6111 73.3334 40 73.3334ZM40 66.6667C47.4444 66.6667 53.75 64.0833 58.9166 58.9167C64.0833 53.75 66.6666 47.4445 66.6666 40C66.6666 32.5556 64.0833 26.25 58.9166 21.0834C53.75 15.9167 47.4444 13.3334 40 13.3334C32.5555 13.3334 26.25 15.9167 21.0833 21.0834C15.9166 26.25 13.3333 32.5556 13.3333 40C13.3333 47.4445 15.9166 53.75 21.0833 58.9167C26.25 64.0833 32.5555 66.6667 40 66.6667Z" fill="black"/>
</svg>
