<svg width="80" height="80" viewBox="0 0 80 80" fill="none" xmlns="http://www.w3.org/2000/svg">
<path d="M36.6667 56.6666H43.3333V43.3333H56.6667V36.6666H43.3333V23.3333H36.6667V36.6666H23.3333V43.3333H36.6667V56.6666ZM40 73.3333C35.3889 73.3333 31.0556 72.4722 27 70.75C22.9445 68.9722 19.4167 66.5833 16.4167 63.5833C13.4167 60.5833 11.0278 57.0555 9.25001 53C7.52778 48.9444 6.66667 44.6111 6.66667 40C6.66667 35.3888 7.52778 31.0555 9.25001 27C11.0278 22.9444 13.4167 19.4166 16.4167 16.4166C19.4167 13.4166 22.9445 11.0555 27 9.33329C31.0556 7.55551 35.3889 6.66663 40 6.66663C44.6111 6.66663 48.9445 7.55551 53 9.33329C57.0556 11.0555 60.5833 13.4166 63.5833 16.4166C66.5833 19.4166 68.9445 22.9444 70.6667 27C72.4445 31.0555 73.3333 35.3888 73.3333 40C73.3333 44.6111 72.4445 48.9444 70.6667 53C68.9445 57.0555 66.5833 60.5833 63.5833 63.5833C60.5833 66.5833 57.0556 68.9722 53 70.75C48.9445 72.4722 44.6111 73.3333 40 73.3333ZM40 66.6666C47.4445 66.6666 53.75 64.0833 58.9167 58.9166C64.0833 53.75 66.6667 47.4444 66.6667 40C66.6667 32.5555 64.0833 26.25 58.9167 21.0833C53.75 15.9166 47.4445 13.3333 40 13.3333C32.5556 13.3333 26.25 15.9166 21.0833 21.0833C15.9167 26.25 13.3333 32.5555 13.3333 40C13.3333 47.4444 15.9167 53.75 21.0833 58.9166C26.25 64.0833 32.5556 66.6666 40 66.6666Z" fill="black"/>
</svg>
