<svg width="80" height="80" viewBox="0 0 80 80" fill="none" xmlns="http://www.w3.org/2000/svg">
<path d="M36.6667 56.6667H43.3334V43.3334H56.6667V36.6667H43.3334V23.3334H36.6667V36.6667H23.3334V43.3334H36.6667V56.6667ZM40 73.3334C35.3889 73.3334 31.0556 72.4722 27 70.75C22.9445 68.9722 19.4167 66.5833 16.4167 63.5833C13.4167 60.5833 11.0278 57.0556 9.25002 53C7.5278 48.9445 6.66669 44.6111 6.66669 40C6.66669 35.3889 7.5278 31.0556 9.25002 27C11.0278 22.9445 13.4167 19.4167 16.4167 16.4167C19.4167 13.4167 22.9445 11.0556 27 9.33335C31.0556 7.55558 35.3889 6.66669 40 6.66669C44.6111 6.66669 48.9445 7.55558 53 9.33335C57.0556 11.0556 60.5834 13.4167 63.5834 16.4167C66.5834 19.4167 68.9445 22.9445 70.6667 27C72.4445 31.0556 73.3334 35.3889 73.3334 40C73.3334 44.6111 72.4445 48.9445 70.6667 53C68.9445 57.0556 66.5834 60.5833 63.5834 63.5833C60.5834 66.5833 57.0556 68.9722 53 70.75C48.9445 72.4722 44.6111 73.3334 40 73.3334ZM40 66.6667C47.4445 66.6667 53.75 64.0833 58.9167 58.9167C64.0834 53.75 66.6667 47.4445 66.6667 40C66.6667 32.5556 64.0834 26.25 58.9167 21.0834C53.75 15.9167 47.4445 13.3334 40 13.3334C32.5556 13.3334 26.25 15.9167 21.0834 21.0834C15.9167 26.25 13.3334 32.5556 13.3334 40C13.3334 47.4445 15.9167 53.75 21.0834 58.9167C26.25 64.0833 32.5556 66.6667 40 66.6667Z" fill="black"/>
</svg>
