<svg width="35" height="35" viewBox="0 0 35 35" fill="none" xmlns="http://www.w3.org/2000/svg">
<path d="M17.5 26.25L23.3333 20.4167L21.2917 18.375L18.9583 20.7083V14.5833H16.0417V20.7083L13.7083 18.375L11.6667 20.4167L17.5 26.25ZM7.29167 11.6667V27.7083H27.7083V11.6667H7.29167ZM7.29167 30.625C6.48958 30.625 5.79688 30.3455 5.21354 29.7865C4.65451 29.2031 4.375 28.5104 4.375 27.7083V9.51563C4.375 9.17535 4.42361 8.84722 4.52083 8.53125C4.64236 8.21528 4.8125 7.92361 5.03125 7.65625L6.85417 5.43229C7.12153 5.09201 7.44965 4.83681 7.83854 4.66667C8.25174 4.47222 8.67708 4.375 9.11458 4.375H25.8854C26.3229 4.375 26.7361 4.47222 27.125 4.66667C27.5382 4.83681 27.8785 5.09201 28.1458 5.43229L29.9688 7.65625C30.1875 7.92361 30.3455 8.21528 30.4427 8.53125C30.5642 8.84722 30.625 9.17535 30.625 9.51563V27.7083C30.625 28.5104 30.3333 29.2031 29.75 29.7865C29.191 30.3455 28.5104 30.625 27.7083 30.625H7.29167ZM7.875 8.75H27.125L25.8854 7.29167H9.11458L7.875 8.75Z" fill="#1D1B20"/>
</svg>
