<svg width="30" height="30" viewBox="0 0 30 30" fill="none" xmlns="http://www.w3.org/2000/svg">
<path d="M7.5 17.5H22.5V15H7.5V17.5ZM7.5 13.75H22.5V11.25H7.5V13.75ZM7.5 10H22.5V7.5H7.5V10ZM27.5 27.5L22.5 22.5H5C4.3125 22.5 3.72396 22.2552 3.23438 21.7656C2.74479 21.276 2.5 20.6875 2.5 20V5C2.5 4.3125 2.74479 3.72396 3.23438 3.23438C3.72396 2.74479 4.3125 2.5 5 2.5H25C25.6875 2.5 26.276 2.74479 26.7656 3.23438C27.2552 3.72396 27.5 4.3125 27.5 5V27.5ZM5 20H23.5625L25 21.4062V5H5V20Z" fill="#1D1B20"/>
</svg>
