<svg width="35" height="35" viewBox="0 0 35 35" fill="none" xmlns="http://www.w3.org/2000/svg">
<path d="M17.5 30.625L15.3854 28.7292C12.9305 26.5173 10.901 24.6094 9.29683 23.0052C7.69267 21.401 6.41663 19.967 5.46871 18.7031C4.52079 17.4149 3.85239 16.2361 3.4635 15.1666C3.09892 14.0972 2.91663 13.0035 2.91663 11.8854C2.91663 9.60068 3.68225 7.69269 5.2135 6.16144C6.74475 4.63019 8.65274 3.86456 10.9375 3.86456C12.2013 3.86456 13.4045 4.13192 14.5468 4.66665C15.6892 5.20137 16.6736 5.95484 17.5 6.92706C18.3263 5.95484 19.3107 5.20137 20.4531 4.66665C21.5954 4.13192 22.7986 3.86456 24.0625 3.86456C26.3472 3.86456 28.2552 4.63019 29.7864 6.16144C31.3177 7.69269 32.0833 9.60068 32.0833 11.8854C32.0833 13.0035 31.8888 14.0972 31.5 15.1666C31.1354 16.2361 30.4791 17.4149 29.5312 18.7031C28.5833 19.967 27.3073 21.401 25.7031 23.0052C24.0989 24.6094 22.0694 26.5173 19.6145 28.7292L17.5 30.625ZM17.5 26.6875C19.8333 24.5972 21.7534 22.8107 23.2604 21.3281C24.7673 19.8212 25.9583 18.5208 26.8333 17.4271C27.7083 16.309 28.3159 15.3246 28.6562 14.4739C28.9965 13.5989 29.1666 12.7361 29.1666 11.8854C29.1666 10.4271 28.6805 9.21179 27.7083 8.23957C26.7361 7.26734 25.5208 6.78123 24.0625 6.78123C22.9201 6.78123 21.8628 7.10936 20.8906 7.76561C19.9184 8.39755 19.25 9.21179 18.8854 10.2083H16.1145C15.75 9.21179 15.0816 8.39755 14.1093 7.76561C13.1371 7.10936 12.0798 6.78123 10.9375 6.78123C9.47913 6.78123 8.26385 7.26734 7.29163 8.23957C6.3194 9.21179 5.83329 10.4271 5.83329 11.8854C5.83329 12.7361 6.00343 13.5989 6.34371 14.4739C6.68399 15.3246 7.29163 16.309 8.16663 17.4271C9.04163 18.5208 10.2326 19.8212 11.7395 21.3281C13.2465 22.8107 15.1666 24.5972 17.5 26.6875Z" fill="#1D1B20"/>
</svg>
