<svg width="35" height="35" viewBox="0 0 35 35" fill="none" xmlns="http://www.w3.org/2000/svg">
<path d="M17.5 30.625L15.3854 28.7292C12.9306 26.5173 10.9011 24.6094 9.2969 23.0052C7.69273 21.401 6.41669 19.967 5.46877 18.7031C4.52085 17.4149 3.85245 16.2361 3.46356 15.1666C3.09898 14.0972 2.91669 13.0035 2.91669 11.8854C2.91669 9.60068 3.68231 7.69269 5.21356 6.16144C6.74481 4.63019 8.6528 3.86456 10.9375 3.86456C12.2014 3.86456 13.4045 4.13192 14.5469 4.66665C15.6893 5.20137 16.6736 5.95484 17.5 6.92706C18.3264 5.95484 19.3108 5.20137 20.4531 4.66665C21.5955 4.13192 22.7986 3.86456 24.0625 3.86456C26.3472 3.86456 28.2552 4.63019 29.7865 6.16144C31.3177 7.69269 32.0834 9.60068 32.0834 11.8854C32.0834 13.0035 31.8889 14.0972 31.5 15.1666C31.1354 16.2361 30.4792 17.4149 29.5313 18.7031C28.5834 19.967 27.3073 21.401 25.7031 23.0052C24.099 24.6094 22.0695 26.5173 19.6146 28.7292L17.5 30.625ZM17.5 26.6875C19.8334 24.5972 21.7535 22.8107 23.2604 21.3281C24.7674 19.8212 25.9584 18.5208 26.8334 17.4271C27.7084 16.309 28.316 15.3246 28.6563 14.4739C28.9965 13.5989 29.1667 12.7361 29.1667 11.8854C29.1667 10.4271 28.6806 9.21179 27.7084 8.23957C26.7361 7.26734 25.5209 6.78123 24.0625 6.78123C22.9202 6.78123 21.8629 7.10936 20.8906 7.76561C19.9184 8.39755 19.25 9.21179 18.8854 10.2083H16.1146C15.75 9.21179 15.0816 8.39755 14.1094 7.76561C13.1372 7.10936 12.0799 6.78123 10.9375 6.78123C9.47919 6.78123 8.26391 7.26734 7.29169 8.23957C6.31946 9.21179 5.83335 10.4271 5.83335 11.8854C5.83335 12.7361 6.00349 13.5989 6.34377 14.4739C6.68405 15.3246 7.29169 16.309 8.16669 17.4271C9.04169 18.5208 10.2327 19.8212 11.7396 21.3281C13.2465 22.8107 15.1667 24.5972 17.5 26.6875Z" fill="#1D1B20"/>
</svg>
