<svg width="35" height="35" viewBox="0 0 35 35" fill="none" xmlns="http://www.w3.org/2000/svg">
<path d="M17.5 30.625L15.3854 28.7292C12.9305 26.5174 10.901 24.6094 9.29686 23.0053C7.6927 21.4011 6.41666 19.9671 5.46874 18.7032C4.52082 17.415 3.85242 16.2362 3.46353 15.1667C3.09895 14.0973 2.91666 13.0035 2.91666 11.8855C2.91666 9.60074 3.68228 7.69275 5.21353 6.1615C6.74478 4.63025 8.65277 3.86462 10.9375 3.86462C12.2014 3.86462 13.4045 4.13199 14.5469 4.66671C15.6892 5.20143 16.6736 5.9549 17.5 6.92713C18.3264 5.9549 19.3108 5.20143 20.4531 4.66671C21.5955 4.13199 22.7986 3.86462 24.0625 3.86462C26.3472 3.86462 28.2552 4.63025 29.7864 6.1615C31.3177 7.69275 32.0833 9.60074 32.0833 11.8855C32.0833 13.0035 31.8889 14.0973 31.5 15.1667C31.1354 16.2362 30.4792 17.415 29.5312 18.7032C28.5833 19.9671 27.3073 21.4011 25.7031 23.0053C24.0989 24.6094 22.0694 26.5174 19.6146 28.7292L17.5 30.625ZM17.5 26.6875C19.8333 24.5973 21.7535 22.8108 23.2604 21.3282C24.7673 19.8212 25.9583 18.5209 26.8333 17.4271C27.7083 16.3091 28.316 15.3247 28.6562 14.474C28.9965 13.599 29.1667 12.7362 29.1667 11.8855C29.1667 10.4271 28.6805 9.21185 27.7083 8.23963C26.7361 7.2674 25.5208 6.78129 24.0625 6.78129C22.9201 6.78129 21.8628 7.10942 20.8906 7.76567C19.9184 8.39761 19.25 9.21185 18.8854 10.2084H16.1146C15.75 9.21185 15.0816 8.39761 14.1094 7.76567C13.1371 7.10942 12.0799 6.78129 10.9375 6.78129C9.47916 6.78129 8.26388 7.2674 7.29166 8.23963C6.31943 9.21185 5.83332 10.4271 5.83332 11.8855C5.83332 12.7362 6.00346 13.599 6.34374 14.474C6.68402 15.3247 7.29166 16.3091 8.16666 17.4271C9.04166 18.5209 10.2326 19.8212 11.7396 21.3282C13.2465 22.8108 15.1667 24.5973 17.5 26.6875Z" fill="#1D1B20"/>
</svg>
