<svg width="103" height="103" viewBox="0 0 103 103" fill="none" xmlns="http://www.w3.org/2000/svg">
<path d="M103 77.25C103 80.2853 101.794 83.1962 99.648 85.3424C97.5017 87.4887 94.5908 88.6944 91.5556 88.6944H11.4444C8.40919 88.6944 5.49825 87.4887 3.352 85.3424C1.20575 83.1962 0 80.2853 0 77.25V25.75C0 22.7147 1.20575 19.8038 3.352 17.6576C5.49825 15.5113 8.40919 14.3056 11.4444 14.3056H91.5556C94.5908 14.3056 97.5017 15.5113 99.648 17.6576C101.794 19.8038 103 22.7147 103 25.75V77.25Z" fill="#EEEEEE"/>
<path d="M51.4999 72.5278C62.561 72.5278 71.5277 63.561 71.5277 52.5C71.5277 41.439 62.561 32.4722 51.4999 32.4722C40.4389 32.4722 31.4722 41.439 31.4722 52.5C31.4722 63.561 40.4389 72.5278 51.4999 72.5278Z" fill="#ED1B2F"/>
</svg>
