<svg width="103" height="103" viewBox="0 0 103 103" fill="none" xmlns="http://www.w3.org/2000/svg">
<path d="M41.8438 28.5825V34.0222H102.944C102.858 32.268 102.675 30.0503 102.018 28.5825" fill="#EC1C24"/>
<path d="M99.1375 23.1428H41.8438V28.5825H102.018C101.365 26.5531 100.393 24.7023 99.1375 23.1428Z" fill="#E6E7E8"/>
<path d="M86.9062 17.7031H41.8438V23.1428H99.1375C96.4515 19.7792 92.0305 17.7031 86.9062 17.7031Z" fill="#EC1C24"/>
<path d="M102.944 34.0222H41.8438V39.4619H103V35.836C103 35.5125 102.979 35.197 102.969 34.88C102.963 34.7931 102.953 34.5694 102.944 34.0222Z" fill="#E6E7E8"/>
<path d="M41.8438 44.9016H103V39.4619H41.8438V44.9016Z" fill="#EC1C24"/>
<path d="M41.8438 50.3413H103V44.9016H41.8438V50.3413Z" fill="#E6E7E8"/>
<path d="M41.8438 50.3413H103V55.7809H41.8438V50.3413Z" fill="#EC1C24"/>
<path d="M0 55.7809V61.2206H103V55.7809H41.8438H0Z" fill="#E6E7E8"/>
<path d="M0 61.2206H103V66.6603H0V61.2206Z" fill="#EC1C24"/>
<path d="M0.00804687 70.0062C0.00804687 70.0062 -0.0064375 71.3243 0.0321875 72.1H102.968C103.013 71.305 102.992 70.0062 102.992 70.0062L103 66.6603H0L0.00804687 70.0062Z" fill="#E6E7E8"/>
<path d="M16.0937 88.5156H86.9062C92.0449 88.5156 96.3162 86.6488 99.234 82.9794H3.74976C6.76251 86.7292 11.1143 88.5156 16.0856 88.5156" fill="#EC1C24"/>
<path d="M3.75785 82.9794H99.2421C100.515 81.3619 101.465 79.5153 102.042 77.5397H0.973633C1.56248 79.509 2.50903 81.353 3.7659 82.9794" fill="#E6E7E8"/>
<path d="M0.965664 77.5397H102.034C102.561 75.7701 102.874 73.9439 102.968 72.1H0.0322266C0.191555 73.9604 0.339617 75.3654 0.965664 77.5397Z" fill="#EC1C24"/>
<path d="M41.8438 17.7031H16.0938C5.42842 17.7031 0 25.6293 0 35.4062V55.7809H41.8438V17.7031Z" fill="#176496"/>
<path d="M4.50301 27.3208L5.37851 26.648L6.2524 27.3208L5.91282 26.2393L6.78349 25.5778H5.70843L5.37529 24.4915L5.04376 25.5778H3.97031L4.8442 26.2393L4.50301 27.3208ZM10.2871 27.3208L11.1626 26.648L12.0365 27.3208L11.6985 26.2393L12.5676 25.5778H11.4941L11.161 24.4915L10.8295 25.5778H9.75279L10.6267 26.2393L10.2871 27.3208ZM16.6683 27.3208L17.5422 26.648L18.4177 27.3208L18.0781 26.2393L18.9471 25.5778H17.8801L17.5422 24.4915L17.209 25.5778H16.142L17.0062 26.2393L16.6683 27.3208ZM23.0028 27.3208L23.8767 26.648L24.7522 27.3208L24.4142 26.2393L25.2833 25.5778H24.205L23.8767 24.4915L23.5451 25.5778H22.4701L23.3424 26.2393L23.0028 27.3208ZM29.3598 27.3208L30.2353 26.648L31.1092 27.3208L30.7712 26.2393L31.6419 25.5778H30.5652L30.2337 24.4915L29.9022 25.5778H28.8287L29.6978 26.2393L29.3598 27.3208ZM7.58174 30.1452L8.45563 29.4741L9.32952 30.1452L8.99317 29.0653L9.86223 28.4039H8.78717L8.45402 27.3191L8.12732 28.4039H7.04904L7.91971 29.0653L7.58174 30.1452ZM13.3674 30.1452L14.2413 29.4741L15.1152 30.1452L14.7773 29.0653L15.6463 28.4039H14.5648L14.2413 27.3191L13.9082 28.4039H12.8347L13.7054 29.0653L13.3674 30.1452ZM19.7486 30.1452L20.6209 29.4741L21.4948 30.1452L21.1568 29.0653L22.0275 28.4039H20.954L20.6209 27.3191L20.2878 28.4039H19.2127L20.0834 29.0653L19.7486 30.1452ZM26.0799 30.1452L26.9554 29.4741L27.8309 30.1452L27.4881 29.0653L28.3604 28.4039H27.2869L26.9538 27.3191L26.6239 28.4039H25.5488L26.4195 29.0653L26.0799 30.1452ZM32.445 30.1452L33.3124 29.4741L34.1863 30.1452L33.8451 29.0653L34.7174 28.4039H33.6456L33.3108 27.3191L32.9809 28.4039H31.9058L32.7765 29.0653L32.445 30.1452ZM36.0291 27.3208L36.9029 26.648L37.7784 27.3208L37.4389 26.2393L38.3079 25.5778H37.2409L36.9013 24.4915L36.5698 25.5778H35.4867L36.367 26.2393L36.0291 27.3208ZM4.41771 49.9228L5.29321 49.2581L6.1671 49.9228L5.82913 48.851L6.6982 48.1879L5.62474 48.1911L5.28999 47.1064L4.96168 48.1911L3.88501 48.1879L4.75568 48.851L4.41771 49.9228ZM10.2034 49.9228L11.0773 49.2581L11.9528 49.9228L11.6132 48.851L12.4823 48.1879L11.4104 48.1911L11.0757 47.1064L10.7458 48.1911L9.67232 48.1879L10.5414 48.851L10.2034 49.9228ZM16.5846 49.9228L17.4585 49.2581L18.334 49.9228L17.9944 48.851L18.8635 48.1879L17.7836 48.1911L17.4569 47.1064L17.1253 48.1911L16.0519 48.1879L16.9226 48.851L16.5846 49.9228ZM22.9191 49.9228L23.793 49.2581L24.6669 49.9228L24.3337 48.851L25.198 48.1879L24.1229 48.1911L23.7914 47.1064L23.4598 48.1911L22.3864 48.1879L23.2554 48.851L22.9191 49.9228ZM29.2745 49.9228L30.15 49.2581L31.0255 49.9228L30.6908 48.851L31.555 48.1879L30.4815 48.1911L30.1484 47.1064L29.8185 48.1911L28.7434 48.1879L29.6125 48.851L29.2745 49.9228ZM35.9438 49.9228L36.8176 49.2581L37.6931 49.9228L37.3536 48.851L38.2242 48.1879L37.1444 48.1911L36.816 47.1064L36.4845 48.1911L35.4062 48.1879L36.2817 48.851L35.9438 49.9228ZM4.50301 32.9729L5.37851 32.3002L6.2524 32.9729L5.91282 31.8914L6.78349 31.2299L5.70843 31.2331L5.37529 30.1452L5.04376 31.2331L3.97031 31.2299L4.8442 31.8914L4.50301 32.9729ZM10.2871 32.9729L11.1626 32.3002L12.0365 32.9729L11.6985 31.8914L12.5676 31.2299L11.4941 31.2331L11.161 30.1452L10.8295 31.2331L9.75279 31.2299L10.6267 31.8914L10.2871 32.9729ZM16.6683 32.9729L17.5422 32.3002L18.4177 32.9729L18.0781 31.8914L18.9471 31.2299L17.8801 31.2331L17.5422 30.1452L17.209 31.2331L16.142 31.2299L17.0062 31.8914L16.6683 32.9729ZM23.0028 32.9729L23.8767 32.3002L24.7522 32.9729L24.4142 31.8914L25.2833 31.2299L24.205 31.2331L23.8767 30.1452L23.5451 31.2331L22.4701 31.2299L23.3424 31.8914L23.0028 32.9729ZM29.3598 32.9729L30.2353 32.3002L31.1092 32.9729L30.7712 31.8914L31.6419 31.2299L30.5652 31.2331L30.2337 30.1452L29.9022 31.2331L28.8287 31.2299L29.6978 31.8914L29.3598 32.9729ZM7.58174 35.7989L8.45563 35.1278L9.32952 35.7989L8.99317 34.719L9.86223 34.0544H8.78717L8.45402 32.9729L8.12732 34.0544H7.04904L7.91971 34.719L7.58174 35.7989ZM13.3674 35.7989L14.2413 35.1278L15.1152 35.7989L14.7773 34.719L15.6463 34.0544H14.5648L14.2413 32.9729L13.9082 34.0544H12.8347L13.7054 34.719L13.3674 35.7989ZM19.7486 35.7989L20.6209 35.1278L21.4948 35.7989L21.1568 34.719L22.0275 34.0544H20.954L20.6209 32.9729L20.2878 34.0544H19.2127L20.0834 34.719L19.7486 35.7989ZM26.0799 35.7989L26.9554 35.1278L27.8309 35.7989L27.4881 34.719L28.3604 34.0544H27.2869L26.9538 32.9729L26.6239 34.0544H25.5488L26.4195 34.719L26.0799 35.7989ZM32.445 35.7989L33.3124 35.1278L34.1863 35.7989L33.8451 34.719L34.7174 34.0544H33.6456L33.3108 32.9729L32.9809 34.0544H31.9058L32.7765 34.719L32.445 35.7989ZM36.0291 32.9729L36.9029 32.3002L37.7784 32.9729L37.4389 31.8914L38.3079 31.2299L37.2409 31.2331L36.9013 30.1452L36.5698 31.2331L35.4867 31.2299L36.367 31.8914L36.0291 32.9729ZM4.41771 38.625L5.29321 37.9539L6.1671 38.625L5.82753 37.5467L6.6982 36.8837L5.62313 36.8869L5.28999 35.7989L4.96168 36.8869L3.88501 36.8837L4.75568 37.5467L4.41771 38.625ZM10.2034 38.625L11.0773 37.9539L11.9528 38.625L11.6132 37.5467L12.4823 36.8837L11.4104 36.8869L11.0757 35.7989L10.7458 36.8869L9.67232 36.8837L10.5398 37.5467L10.2034 38.625ZM16.5846 38.625L17.4585 37.9539L18.3324 38.625L17.9944 37.5467L18.8635 36.8837L17.7836 36.8869L17.4569 35.7989L17.1253 36.8869L16.0519 36.8837L16.9226 37.5467L16.5846 38.625ZM22.9191 38.625L23.7914 37.9539L24.6669 38.625L24.3337 37.5467L25.198 36.8837L24.1229 36.8869L23.7914 35.7989L23.4598 36.8869L22.3864 36.8837L23.2554 37.5467L22.9191 38.625ZM29.2745 38.625L30.15 37.9539L31.0239 38.625L30.6908 37.5467L31.555 36.8837L30.4799 36.8869L30.1484 35.7989L29.8185 36.8869L28.7434 36.8837L29.6125 37.5467L29.2745 38.625ZM7.49645 41.4511L8.37034 40.7816L9.24423 41.4511L8.90787 40.3792L9.77532 39.7129H8.70026L8.36873 38.625L8.03881 39.7129H6.96374L7.83442 40.3792L7.49645 41.4511ZM13.2822 41.4511L14.156 40.7816L15.0299 41.4511L14.692 40.3792L15.561 39.7129H14.4844L14.1544 38.625L13.8229 39.7129H12.7478L13.6201 40.3792L13.2822 41.4511ZM19.6649 41.4511L20.5356 40.7816L21.4111 41.4511L21.0667 40.3792L21.9422 39.7129H20.8687L20.5356 38.625L20.2041 39.7129H19.129L19.9997 40.3792L19.6649 41.4511ZM25.9914 41.4511L26.8701 40.7816L27.7456 41.4511L27.4076 40.3792L28.2751 39.7129H27.2016L26.8685 38.625L26.5386 39.7129H25.4635L26.3342 40.3792L25.9914 41.4511ZM32.3484 41.4511L33.2271 40.7816L34.1026 41.4511L33.7631 40.3792L34.6353 39.7129H33.5619L33.2271 38.625L32.8956 39.7129H31.8205L32.6912 40.3792L32.3484 41.4511ZM35.9438 38.625L36.8176 37.9539L37.6915 38.625L37.3536 37.5467L38.2242 36.8837L37.1444 36.8869L36.816 35.7989L36.4845 36.8869L35.4062 36.8837L36.2817 37.5467L35.9438 38.625ZM4.41771 44.2787L5.29321 43.6141L6.1671 44.2787L5.82753 43.1988L6.6982 42.5358L5.62313 42.539L5.28999 41.4511L4.96168 42.539L3.88501 42.5358L4.75568 43.1988L4.41771 44.2787ZM10.2034 44.2787L11.0773 43.6141L11.9528 44.2787L11.6132 43.1988L12.4823 42.5358L11.4104 42.539L11.0757 41.4511L10.7458 42.539L9.67232 42.5358L10.5398 43.1988L10.2034 44.2787ZM16.5846 44.2787L17.4585 43.6141L18.3324 44.2787L17.9944 43.1988L18.8635 42.5358L17.7836 42.539L17.4569 41.4511L17.1253 42.539L16.0519 42.5358L16.9226 43.1988L16.5846 44.2787ZM22.9191 44.2787L23.7914 43.6141L24.6669 44.2787L24.3337 43.1988L25.198 42.5358L24.1229 42.539L23.7914 41.4511L23.4598 42.539L22.3864 42.5358L23.2554 43.1988L22.9191 44.2787ZM29.2745 44.2787L30.15 43.6141L31.0239 44.2787L30.6908 43.1988L31.555 42.5358L30.4799 42.539L30.1484 41.4511L29.8185 42.539L28.7434 42.5358L29.6125 43.1988L29.2745 44.2787ZM7.49645 47.1064L8.37034 46.4337L9.24423 47.1064L8.90787 46.0249L9.77532 45.3683H8.70026L8.36873 44.2787L8.03881 45.3683H6.96374L7.83442 46.0249L7.49645 47.1064ZM13.2822 47.1064L14.156 46.4337L15.0299 47.1064L14.692 46.0249L15.561 45.3683H14.4844L14.1544 44.2787L13.8229 45.3683H12.7478L13.6201 46.0249L13.2822 47.1064ZM19.6649 47.1064L20.5356 46.4337L21.4111 47.1064L21.0667 46.0249L21.9422 45.3683H20.8687L20.5356 44.2787L20.2041 45.3683H19.129L19.9997 46.0249L19.6649 47.1064ZM25.9914 47.1064L26.8701 46.4337L27.7456 47.1064L27.4076 46.0249L28.2751 45.3683H27.2016L26.8685 44.2787L26.5386 45.3683H25.4635L26.3342 46.0249L25.9914 47.1064ZM32.3484 47.1064L33.2271 46.4337L34.1026 47.1064L33.7631 46.0249L34.6353 45.3683H33.5619L33.2271 44.2787L32.8956 45.3683H31.8205L32.6912 46.0249L32.3484 47.1064ZM35.9438 44.2787L36.8176 43.6141L37.6915 44.2787L37.3536 43.1988L38.2242 42.5358L37.1444 42.539L36.816 41.4511L36.4845 42.539L35.4062 42.5358L36.2817 43.1988L35.9438 44.2787Z" fill="white"/>
</svg>
