<svg width="35" height="35" viewBox="0 0 35 35" fill="none" xmlns="http://www.w3.org/2000/svg">
<path d="M5.83335 29.1666C5.03127 29.1666 4.34464 28.8811 3.77346 28.3099C3.20228 27.7387 2.91669 27.0521 2.91669 26.25V8.74998C2.91669 7.9479 3.20228 7.26126 3.77346 6.69008C4.34464 6.1189 5.03127 5.83331 5.83335 5.83331H14.5834L17.5 8.74998H29.1667C29.9688 8.74998 30.6554 9.03557 31.2266 9.60675C31.7978 10.1779 32.0834 10.8646 32.0834 11.6666V26.25C32.0834 27.0521 31.7978 27.7387 31.2266 28.3099C30.6554 28.8811 29.9688 29.1666 29.1667 29.1666H5.83335ZM5.83335 26.25H29.1667V11.6666H16.2969L13.3802 8.74998H5.83335V26.25Z" fill="#1D1B20"/>
</svg>
