<svg width="35" height="35" viewBox="0 0 35 35" fill="none" xmlns="http://www.w3.org/2000/svg">
<path d="M5.83333 29.1667C5.03125 29.1667 4.34462 28.8811 3.77343 28.3099C3.20225 27.7388 2.91666 27.0521 2.91666 26.25V8.75004C2.91666 7.94796 3.20225 7.26133 3.77343 6.69014C4.34462 6.11896 5.03125 5.83337 5.83333 5.83337H14.5833L17.5 8.75004H29.1667C29.9687 8.75004 30.6554 9.03563 31.2266 9.60681C31.7977 10.178 32.0833 10.8646 32.0833 11.6667V26.25C32.0833 27.0521 31.7977 27.7388 31.2266 28.3099C30.6554 28.8811 29.9687 29.1667 29.1667 29.1667H5.83333ZM5.83333 26.25H29.1667V11.6667H16.2969L13.3802 8.75004H5.83333V26.25Z" fill="#1D1B20"/>
</svg>
