<svg width="35" height="35" viewBox="0 0 35 35" fill="none" xmlns="http://www.w3.org/2000/svg">
<path d="M5.83329 29.1666C5.03121 29.1666 4.34458 28.8811 3.7734 28.3099C3.20222 27.7387 2.91663 27.0521 2.91663 26.25V8.74998C2.91663 7.9479 3.20222 7.26126 3.7734 6.69008C4.34458 6.1189 5.03121 5.83331 5.83329 5.83331H14.5833L17.5 8.74998H29.1666C29.9687 8.74998 30.6553 9.03557 31.2265 9.60675C31.7977 10.1779 32.0833 10.8646 32.0833 11.6666V26.25C32.0833 27.0521 31.7977 27.7387 31.2265 28.3099C30.6553 28.8811 29.9687 29.1666 29.1666 29.1666H5.83329ZM5.83329 26.25H29.1666V11.6666H16.2968L13.3802 8.74998H5.83329V26.25Z" fill="#1D1B20"/>
</svg>
