<svg width="90" height="90" viewBox="0 0 90 90" fill="none" xmlns="http://www.w3.org/2000/svg">
<rect width="90" height="90" rx="45" fill="#EADDFF"/>
<path fill-rule="evenodd" clip-rule="evenodd" d="M58.5005 36C58.5005 43.4558 52.4564 49.5 45.0005 49.5C37.5447 49.5 31.5005 43.4558 31.5005 36C31.5005 28.5442 37.5447 22.5 45.0005 22.5C52.4564 22.5 58.5005 28.5442 58.5005 36ZM54.0005 36C54.0005 40.9706 49.9711 45 45.0005 45C40.03 45 36.0005 40.9706 36.0005 36C36.0005 31.0294 40.03 27 45.0005 27C49.9711 27 54.0005 31.0294 54.0005 36Z" fill="#4F378A"/>
<path d="M45.0006 56.25C30.4332 56.25 18.0214 64.8639 13.2935 76.9321C14.4452 78.0758 15.6585 79.1576 16.9279 80.1721C20.4486 69.0923 31.4932 60.75 45.0006 60.75C58.508 60.75 69.5525 69.0923 73.0732 80.1722C74.3426 79.1576 75.5559 78.0758 76.7077 76.9321C71.9797 64.8639 59.5679 56.25 45.0006 56.25Z" fill="#4F378A"/>
</svg>
