<svg width="35" height="35" viewBox="0 0 35 35" fill="none" xmlns="http://www.w3.org/2000/svg">
<path d="M10.2083 13.125V10.2084H30.625V13.125H10.2083ZM10.2083 18.9584V16.0417H30.625V18.9584H10.2083ZM10.2083 24.7917V21.875H30.625V24.7917H10.2083ZM5.83333 13.125C5.42014 13.125 5.07378 12.9853 4.79427 12.7058C4.51476 12.4263 4.375 12.0799 4.375 11.6667C4.375 11.2535 4.51476 10.9072 4.79427 10.6276C5.07378 10.3481 5.42014 10.2084 5.83333 10.2084C6.24653 10.2084 6.59288 10.3481 6.8724 10.6276C7.15191 10.9072 7.29167 11.2535 7.29167 11.6667C7.29167 12.0799 7.15191 12.4263 6.8724 12.7058C6.59288 12.9853 6.24653 13.125 5.83333 13.125ZM5.83333 18.9584C5.42014 18.9584 5.07378 18.8186 4.79427 18.5391C4.51476 18.2596 4.375 17.9132 4.375 17.5C4.375 17.0868 4.51476 16.7405 4.79427 16.461C5.07378 16.1815 5.42014 16.0417 5.83333 16.0417C6.24653 16.0417 6.59288 16.1815 6.8724 16.461C7.15191 16.7405 7.29167 17.0868 7.29167 17.5C7.29167 17.9132 7.15191 18.2596 6.8724 18.5391C6.59288 18.8186 6.24653 18.9584 5.83333 18.9584ZM5.83333 24.7917C5.42014 24.7917 5.07378 24.652 4.79427 24.3724C4.51476 24.0929 4.375 23.7466 4.375 23.3334C4.375 22.9202 4.51476 22.5738 4.79427 22.2943C5.07378 22.0148 5.42014 21.875 5.83333 21.875C6.24653 21.875 6.59288 22.0148 6.8724 22.2943C7.15191 22.5738 7.29167 22.9202 7.29167 23.3334C7.29167 23.7466 7.15191 24.0929 6.8724 24.3724C6.59288 24.652 6.24653 24.7917 5.83333 24.7917Z" fill="#1D1B20"/>
</svg>
