<?xml version="1.0" encoding="UTF-8"?>
<svg version="1.1" xmlns="http://www.w3.org/2000/svg" width="1024" height="1024">
<path d="M0 0 C337.92 0 675.84 0 1024 0 C1024 337.92 1024 675.84 1024 1024 C686.08 1024 348.16 1024 0 1024 C0 686.08 0 348.16 0 0 Z " fill="#FBFBFB" transform="translate(0,0)"/>
<path d="M0 0 C1.01468353 -0.01004562 2.02936707 -0.02009125 3.07479858 -0.03044128 C4.73613327 -0.03918777 4.73613327 -0.03918777 6.43103027 -0.04811096 C7.60227448 -0.05789474 8.77351868 -0.06767853 9.98025513 -0.07775879 C13.86161168 -0.10770346 17.74296629 -0.12941088 21.62438965 -0.14796448 C22.28652655 -0.1512618 22.94866344 -0.15455912 23.6308651 -0.15795636 C29.8856882 -0.18874676 36.14051641 -0.21543177 42.39539337 -0.23237514 C50.36988709 -0.25423611 58.3437037 -0.29611488 66.31792688 -0.36581272 C71.9385266 -0.41325212 77.55894502 -0.43733544 83.17973852 -0.44457203 C86.52956319 -0.44950075 89.87802136 -0.46739365 93.22773743 -0.50431633 C96.97571776 -0.543396 100.72195567 -0.54424243 104.47009277 -0.53639221 C105.56145538 -0.55639282 106.65281799 -0.57639343 107.7772522 -0.59700012 C117.4598069 -0.50651555 125.75243554 2.83536208 132.8314209 9.53562927 C136.1761683 13.22303892 139.19122611 17.16493384 142.15563965 21.16062927 C143.29095996 22.66819384 144.42770879 24.17468356 145.5657959 25.68016052 C146.41681885 26.80672058 146.41681885 26.80672058 147.28503418 27.95603943 C149.83500363 31.29607774 152.4574324 34.57557793 155.09313965 37.84812927 C163.7687867 48.63441249 172.27681121 59.54868372 180.76965332 70.47923279 C185.27125491 76.27088612 189.79323386 82.04605184 194.3314209 87.80906677 C196.1044114 90.06058747 197.8722672 92.31599691 199.6361084 94.57469177 C205.05872995 101.51172148 210.563427 108.37455901 216.1295166 115.19700623 C220.0990732 120.07025912 224.0031682 124.99031695 227.87438965 129.94187927 C231.7098577 134.844608 235.5962403 139.70515834 239.49230957 144.55979919 C242.80683024 148.69480395 246.08312375 152.85759386 249.34313965 157.03562927 C254.12450576 163.15837809 259.04822501 169.15800039 264.02233887 175.12498474 C274.96813965 188.30501102 274.96813965 188.30501102 274.96813965 191.16062927 C275.62813965 191.16062927 276.28813965 191.16062927 276.96813965 191.16062927 C277.62813965 192.81062927 278.28813965 194.46062927 278.96813965 196.16062927 C279.62813965 196.16062927 280.28813965 196.16062927 280.96813965 196.16062927 C282.50908923 197.98091434 283.93144239 199.80568378 285.34313965 201.72312927 C286.2453564 202.92342354 287.14906362 204.1225986 288.05407715 205.32078552 C288.52941895 205.95129822 289.00476074 206.58181091 289.49450684 207.23143005 C291.92971233 210.41946746 294.44990113 213.53806214 296.96813965 216.66062927 C301.1276645 221.83339717 305.21963941 227.05031339 309.25378418 232.3212738 C316.53703855 241.83214242 323.9917063 251.20668078 331.48498535 260.55247498 C336.23308227 266.47934624 340.92613662 272.44847561 345.60925293 278.42674255 C347.89267263 281.34029748 350.18061162 284.25029962 352.46813965 287.16062927 C355.25479403 290.70633132 358.04068456 294.25262312 360.8236084 297.80125427 C361.76756474 299.0044217 362.71157472 300.20754705 363.65563965 301.41062927 C364.11784912 301.99989197 364.58005859 302.58915466 365.05627441 303.1962738 C367.64838413 306.49633408 370.26555526 309.77370683 372.90563965 313.03562927 C373.48702698 313.79414688 374.06841431 314.55266449 374.66741943 315.33416748 C376.37806064 317.43571029 378.05544496 319.26888246 379.96075439 321.17056274 C389.61202038 331.43868363 390.36152156 340.77409795 390.06976318 354.49151611 C390.02464851 355.76868814 389.97953384 357.04586018 389.93305206 358.36173439 C389.79320374 362.4253522 389.73305488 366.4831443 389.69708252 370.5486145 C389.59308146 380.64461906 389.36898618 390.73747639 389.10540771 400.83049011 C388.9014475 408.67807269 388.73655251 416.52259225 388.6817348 424.37281293 C388.64464544 429.02101035 388.48889371 433.65596435 388.31072998 438.30133057 C387.95066536 457.51881715 393.34287018 468.99877123 404.07979202 484.4087944 C406.60610396 488.09031638 408.83971347 491.90691918 411.03845215 495.78953552 C411.73206269 496.97868093 412.42733043 498.16686152 413.12438965 499.35398865 C413.77407715 500.46580505 414.42376465 501.57762146 415.09313965 502.72312927 C416.13285109 504.5020335 417.17281558 506.28078797 418.21343994 508.05915833 C419.18855575 509.72562531 420.16283704 511.39258053 421.13708496 513.05955505 C423.35640228 516.81819087 425.63266482 520.54036997 427.93249512 524.25022888 C428.96813965 526.16062927 428.96813965 526.16062927 428.96813965 528.16062927 C453.38813965 528.16062927 477.80813965 528.16062927 502.96813965 528.16062927 C501.34564155 533.02812358 499.92179449 536.16465844 497.28063965 540.41062927 C492.12521317 548.79462927 487.243776 557.33240585 482.37365723 565.88426208 C469.73387958 587.94605643 469.73387958 587.94605643 458.96813965 591.16062927 C455.39700565 591.58497202 451.87336696 591.58932534 448.28063965 591.53562927 C447.30183838 591.52475281 446.32303711 591.51387634 445.3145752 591.50267029 C431.79343237 591.20514452 420.85917375 588.32612845 411.2220459 578.30516052 C408.34269906 575.02410371 405.64869002 571.60448387 402.96813965 568.16062927 C402.02876313 566.97125213 401.08865671 565.7824511 400.14782715 564.59422302 C398.28907775 562.24006514 396.4401593 559.87860535 394.5970459 557.51219177 C391.485093 553.52752667 388.27834216 549.62300499 385.0657959 545.71922302 C383.09748979 543.31840272 381.1530722 540.9008839 379.21813965 538.47312927 C376.27938907 534.78654555 373.31310456 531.12374673 370.33410645 527.4697113 C365.18407837 521.15184414 360.08305239 514.80168791 355.06262207 508.38035583 C351.72712167 504.11661641 348.35575493 499.88305557 344.96813965 495.66062927 C340.64943669 490.27629936 336.3689276 484.8639407 332.1126709 479.43016052 C328.26091052 474.51889013 324.36256887 469.64592686 320.45739746 464.77708435 C316.55846443 459.91100846 312.69560696 455.01765384 308.85559082 450.10496521 C305.41019486 445.70184665 301.89246435 441.36161548 298.3314209 437.05125427 C296.96813965 435.16062927 296.96813965 435.16062927 296.96813965 433.16062927 C296.30813965 433.16062927 295.64813965 433.16062927 294.96813965 433.16062927 C293.42718819 431.34034199 292.00488494 429.51554155 290.59313965 427.59812927 C289.68958974 426.3965559 288.78458228 425.19607751 287.8782959 423.99656677 C287.40279297 423.36589294 286.92729004 422.73521912 286.43737793 422.08543396 C284.02227567 418.92148144 281.52703086 415.82307477 279.03063965 412.72312927 C275.16533841 407.91415458 271.32983033 403.08448903 267.53063965 398.22312927 C263.54894059 393.13146837 259.49492801 388.10370457 255.40563965 383.09812927 C250.67970842 377.31202127 246.09145791 371.44576102 241.56188965 365.50437927 C238.60602902 361.66176046 235.53706157 357.91311618 232.46813965 354.16062927 C227.71958388 348.35439055 223.10960741 342.46956751 218.56188965 336.50437927 C215.60602902 332.66176046 212.53706157 328.91311618 209.46813965 325.16062927 C205.5590884 320.38088447 201.71181941 315.57117026 197.96813965 310.66062927 C194.24153463 305.77436759 190.41783487 300.98247346 186.53063965 296.22312927 C181.04246047 289.50359701 175.65080989 282.71612302 170.31091309 275.87840271 C168.03580032 272.96791299 165.75145595 270.06468431 163.46813965 267.16062927 C162.55142987 265.99399648 161.63476317 264.82732984 160.71813965 263.66062927 C160.26438965 263.08312927 159.81063965 262.50562927 159.34313965 261.91062927 C155.21813965 256.66062927 155.21813965 256.66062927 153.84240723 254.90965271 C152.9282395 253.74619604 152.01401449 252.58278438 151.09973145 251.41941833 C148.76935265 248.45401028 146.4400585 245.4877607 144.1126709 242.52000427 C143.6382959 241.91543396 143.1639209 241.31086365 142.6751709 240.68797302 C141.7906719 239.56067037 140.9065158 238.43309852 140.02282715 237.30516052 C137.29874949 233.83429522 134.55038415 230.38349833 131.79309082 226.93894958 C131.07586349 226.04282959 130.35863617 225.14670959 129.61967468 224.22343445 C129.07466812 223.54270874 128.52966156 222.86198303 127.96813965 222.16062927 C127.96792228 222.89953742 127.96770491 223.63844557 127.96748096 224.39974487 C127.95396358 268.19852965 127.91447495 311.99722506 127.84128403 355.79595285 C127.83251733 361.05553219 127.82396751 366.31511186 127.81555176 371.57469177 C127.8138727 372.62177445 127.81219363 373.66885713 127.81046369 374.74766959 C127.78379769 391.69938457 127.77469889 408.65106573 127.77209822 425.60279952 C127.76903821 442.99830599 127.74708592 460.39371473 127.70761508 477.78917706 C127.68385647 488.52216364 127.67481403 499.2549551 127.68462654 509.98796435 C127.68994441 517.34912181 127.6769027 524.71010451 127.64947674 532.07121222 C127.63419634 536.31753639 127.6269602 540.56346939 127.64154243 544.80980492 C127.65472751 548.70143138 127.64473444 552.59230103 127.61670192 556.48384251 C127.61060921 557.88776883 127.6128497 559.29176278 127.62451039 560.6956539 C127.69534855 569.95230578 126.70736862 577.46140937 120.63176948 584.76769817 C113.82933006 591.16978221 104.70586513 591.6027632 95.88391113 591.54881287 C94.8128009 591.55406982 93.74169067 591.55932678 92.63812256 591.56474304 C89.12167484 591.57787322 85.60568518 591.56923008 82.0892334 591.55906677 C79.63261326 591.56108936 77.1759937 591.56400233 74.71937561 591.56776428 C69.58096579 591.57217806 64.44271283 591.56578632 59.30432129 591.55174255 C52.72831724 591.53464246 46.15268034 591.54450343 39.57668972 591.56245995 C34.50740304 591.5733155 29.43820298 591.56984341 24.36891365 591.56207657 C21.94448872 591.56007994 19.52005583 591.56251488 17.09564018 591.56951523 C13.70454018 591.57715965 10.31402988 591.56548328 6.92297363 591.54881287 C5.92794327 591.55488556 4.9329129 591.56095825 3.9077301 591.56721497 C-3.28169548 591.50195613 -9.09902326 590.62687865 -14.78186035 585.84812927 C-20.64872051 578.84049075 -22.18092873 574.08769905 -22.17166805 565.08651543 C-22.17461948 564.14194937 -22.1775709 563.19738332 -22.18061176 562.22419405 C-22.18933918 559.02899637 -22.1908867 555.83383474 -22.19248962 552.6386261 C-22.19721811 550.33668688 -22.20236867 548.0347485 -22.20790726 545.73281109 C-22.22184523 539.38348681 -22.22940594 533.03416828 -22.23588026 526.68483257 C-22.24258051 520.54779865 -22.2548663 514.41077448 -22.26635524 508.27374806 C-22.2982222 491.04522308 -22.31804392 473.81668907 -22.33564076 456.58814448 C-22.34040795 451.92251406 -22.34541672 447.25688391 -22.35044599 442.59125376 C-22.38149089 413.63647269 -22.40811181 384.68168934 -22.42486477 355.72689629 C-22.42880208 349.01730724 -22.43281391 342.30771824 -22.43688965 335.59812927 C-22.43739132 334.7645377 -22.43789298 333.93094612 -22.43840985 333.0720942 C-22.4548295 306.04249488 -22.49328806 279.01298606 -22.54417675 251.98343127 C-22.59638703 224.20132415 -22.62917766 196.41926522 -22.6364423 168.63710804 C-22.63747091 164.71388887 -22.63870724 160.79066979 -22.64006233 156.86745071 C-22.64032037 156.0953159 -22.64057841 155.32318109 -22.64084426 154.52764826 C-22.64554098 142.09673718 -22.67048303 129.66594529 -22.70281376 117.23507884 C-22.73483377 104.74158276 -22.74482669 92.24822102 -22.73238181 79.75468878 C-22.72623422 72.98496272 -22.73051088 66.21563318 -22.76055145 59.44595909 C-22.78782151 53.25018264 -22.78748424 47.05504786 -22.765041 40.85925771 C-22.76180634 38.61625861 -22.76875425 36.37321724 -22.78683823 34.13028871 C-22.80992312 31.08267256 -22.79603079 28.03735601 -22.77294064 24.98978996 C-22.79615499 23.68129731 -22.79615499 23.68129731 -22.81983832 22.34637046 C-22.70745908 15.63356684 -20.37638427 11.23534139 -16.03186035 6.16062927 C-10.9967535 1.60308309 -6.67160649 0.05206901 0 0 Z " fill="#727E84" transform="translate(251.0318603515625,222.83937072753906)"/>
<path d="M0 0 C0.80236084 -0.0065712 1.60472168 -0.0131424 2.43139648 -0.01991272 C5.07845162 -0.0395704 7.72545015 -0.05129308 10.37255859 -0.0612793 C11.28097881 -0.06535482 12.18939903 -0.06943035 13.12534714 -0.07362938 C17.93610148 -0.09446062 22.74682756 -0.10877362 27.55761719 -0.11816406 C32.50357938 -0.12920687 37.44908903 -0.16359066 42.39489174 -0.20333576 C46.21785261 -0.22959803 50.04070733 -0.23786452 53.86375046 -0.24144554 C55.68564272 -0.24628869 57.50753098 -0.25783712 59.32933426 -0.27648354 C73.51800117 -0.41265158 84.37671134 1.17619201 95.89599609 10.17700195 C96.51216797 10.65524414 97.12833984 11.13348633 97.76318359 11.6262207 C105.29937539 18.27481657 109.79081936 28.3439307 110.89599609 38.17700195 C110.99277867 40.77527453 111.04954499 43.34733585 111.05256367 45.94502449 C111.05731267 46.69982454 111.06206167 47.45462458 111.06695458 48.23229736 C111.08161525 50.75798324 111.08932797 53.28364062 111.09700012 55.80935669 C111.1060313 57.64009443 111.1154581 59.47083025 111.12524623 61.3015641 C111.15077256 66.33029467 111.16997638 71.35903228 111.18797028 76.38779473 C111.20416261 80.70187703 111.22394775 85.01594012 111.24365584 89.33000757 C111.42968846 130.25887189 111.52389508 171.18820459 111.59987354 212.11740303 C111.60994129 217.44602621 111.62018318 222.77464901 111.63061523 228.10327148 C111.63190146 228.76524518 111.63318768 229.42721888 111.63451288 230.10925238 C111.67776186 252.21338146 111.76662463 274.31706247 111.87596516 296.42095377 C111.98401023 318.44633558 112.04632219 340.47149749 112.06572837 362.4971379 C112.07785853 374.85619023 112.11042054 387.21446014 112.19532204 399.573246 C112.26764379 410.10297266 112.29892705 420.63182169 112.27752582 431.16179229 C112.26789752 436.5280873 112.27723193 441.8924822 112.33992004 447.258461 C112.79026381 487.84950185 112.79026381 487.84950185 100.3042568 503.37663722 C98.25321296 505.99875611 96.71939774 508.78861525 95.11865234 511.7043457 C94.06642925 513.50840955 93.01307072 515.3118117 91.95849609 517.11450195 C91.38711914 518.09249756 90.81574219 519.07049316 90.22705078 520.078125 C86.04810972 527.22393083 81.85264648 534.3599762 77.64599609 541.48950195 C77.09693604 542.42076904 76.54787598 543.35203613 75.98217773 544.31152344 C75.47420654 545.17076416 74.96623535 546.03000488 74.44287109 546.9152832 C73.77529785 548.0451062 73.77529785 548.0451062 73.09423828 549.19775391 C72.07262927 550.88524051 70.99021812 552.53566891 69.89599609 554.17700195 C67.4413376 554.46379241 65.23954769 554.55573201 62.78417969 554.51757812 C62.05236984 554.5180162 61.32056 554.51845428 60.5665741 554.51890564 C58.14225795 554.51681184 55.71862925 554.49345385 53.29443359 554.4699707 C51.61577736 554.46437683 49.93711624 554.46010575 48.25845337 554.45710754 C43.83600387 554.44564229 39.41384903 554.41616086 34.99151611 554.38299561 C30.48054999 554.35233079 25.96953635 554.3386099 21.45849609 554.32348633 C12.60419982 554.2912926 3.75012244 554.24007613 -5.10400391 554.17700195 C-5.42267929 553.61481964 -5.74135468 553.05263733 -6.06968689 552.47341919 C-12.44787989 541.2337501 -18.89438979 530.059165 -25.66650391 519.05200195 C-27.69443566 515.75144959 -29.71485647 512.44962855 -31.69101334 509.11776447 C-33.32984975 506.38576829 -35.07137707 503.76166378 -36.89135361 501.14739513 C-45.52388768 488.26954184 -46.65431715 477.68786201 -46.40576172 462.45751953 C-46.40850563 460.10336741 -46.41613585 457.74921688 -46.42816925 455.39509392 C-46.44531287 449.63126204 -46.41191868 443.8693162 -46.35667086 438.10576107 C-46.29327816 431.1794842 -46.29465142 424.25358649 -46.29844657 417.32707382 C-46.30401201 404.42832703 -46.26005861 391.53019794 -46.19165039 378.63165283 C-46.0959217 360.38842138 -46.08703749 342.14571238 -46.09585476 323.90226912 C-46.11171504 290.37690393 -46.05349962 256.85209765 -45.95012665 223.32690239 C-45.94739716 222.4409722 -45.94466766 221.55504201 -45.94185546 220.64226545 C-45.93912264 219.75542152 -45.93638983 218.8685776 -45.9335742 217.95485961 C-45.93084137 217.06710786 -45.92810855 216.17935611 -45.92529291 215.26470278 C-45.91975804 213.46940244 -45.91420085 211.67410216 -45.90862137 209.87880196 C-45.8631289 195.16320823 -45.83256599 180.44762071 -45.8077924 165.73197892 C-45.78171329 150.34840299 -45.74458924 134.9648875 -45.69597268 119.58136588 C-45.66923994 111.04944163 -45.64694869 102.51756325 -45.63695526 93.98560143 C-45.62849652 86.81939574 -45.60985771 79.65330773 -45.57785144 72.4871669 C-45.56189685 68.84965361 -45.55065379 65.21229291 -45.55245399 61.57474136 C-45.5542668 57.63280565 -45.53294984 53.69118371 -45.50946045 49.74931335 C-45.51362591 48.61218562 -45.51779136 47.47505789 -45.52208304 46.30347174 C-45.41442222 34.9397365 -42.38049993 26.56650539 -36.10400391 17.17700195 C-35.52650391 16.29012695 -34.94900391 15.40325195 -34.35400391 14.48950195 C-24.81796791 4.68857607 -13.46803099 0.04827251 0 0 Z " fill="#D2D6DA" transform="translate(685.10400390625,196.822998046875)"/>
<path d="M0 0 C17.49 0 34.98 0 53 0 C53.15819612 40.15434614 53.28354089 80.30861046 53.35745731 120.46320543 C53.36621241 125.20219607 53.37527265 129.94118608 53.38452148 134.68017578 C53.38635766 135.62363619 53.38819383 136.56709659 53.39008565 137.53914671 C53.42055735 152.82205961 53.47575619 168.10478848 53.54006957 183.38759215 C53.60549571 199.06540169 53.64440414 214.74311474 53.65861946 230.4210552 C53.66823159 240.09781704 53.69860597 249.77405875 53.75541527 259.45066051 C53.79237455 266.08338024 53.80361042 272.71583049 53.79450964 279.34864576 C53.79001922 283.17749981 53.79697331 287.00544409 53.83443832 290.83413696 C53.87474981 294.98398581 53.86094061 299.13189126 53.84178162 303.28189087 C53.86217151 304.49395348 53.8825614 305.70601609 53.90356916 306.95480788 C53.8038737 314.91407924 53.8038737 314.91407924 51.47293866 318.06284595 C49.71600271 319.60454602 48.02070864 320.83270306 46 322 C45.17757812 322.48210937 44.35515625 322.96421875 43.5078125 323.4609375 C32.62759058 327.63466197 20.37240942 327.63466197 9.4921875 323.4609375 C8.66976562 322.97882813 7.84734375 322.49671875 7 322 C6.42413885 321.66734394 5.84827769 321.33468789 5.2549662 320.99195135 C2.11851655 318.81720453 0.28313615 317.15500204 -0.64419258 313.37213445 C-0.88527325 309.99087712 -0.89880289 306.67148039 -0.84178162 303.28189087 C-0.84776259 301.98636177 -0.85374356 300.69083268 -0.85990578 299.35604513 C-0.87554175 295.76615345 -0.84758579 292.17772656 -0.81245935 288.58802152 C-0.78221293 284.7148812 -0.79246088 280.84182262 -0.79777527 276.96859741 C-0.80144472 270.26010205 -0.77949386 263.55208347 -0.7401104 256.84370804 C-0.68320619 247.14462444 -0.66498884 237.44577124 -0.65619446 227.7465388 C-0.6408763 212.01009441 -0.59429799 196.2739041 -0.52807617 180.53759766 C-0.46381711 165.25180329 -0.41427108 149.96607795 -0.38452148 134.68017578 C-0.38268242 133.73786152 -0.38084336 132.79554726 -0.37894856 131.82467802 C-0.36981326 127.09733574 -0.36096731 122.36999298 -0.35226524 117.64264989 C-0.27970518 78.42824665 -0.15449206 39.21415973 0 0 Z " fill="#FCFBFC" transform="translate(692,345)"/>
<path d="M0 0 C0.80236084 -0.0065712 1.60472168 -0.0131424 2.43139648 -0.01991272 C5.07845162 -0.0395704 7.72545015 -0.05129308 10.37255859 -0.0612793 C11.28097881 -0.06535482 12.18939903 -0.06943035 13.12534714 -0.07362938 C17.93610148 -0.09446062 22.74682756 -0.10877362 27.55761719 -0.11816406 C32.50357938 -0.12920687 37.44908903 -0.16359066 42.39489174 -0.20333576 C46.21785261 -0.22959803 50.04070733 -0.23786452 53.86375046 -0.24144554 C55.68564272 -0.24628869 57.50753098 -0.25783712 59.32933426 -0.27648354 C73.51800117 -0.41265158 84.37671134 1.17619201 95.89599609 10.17700195 C96.51216797 10.65524414 97.12833984 11.13348633 97.76318359 11.6262207 C105.43933832 18.39829498 109.48229684 28.28110716 110.89599609 38.17700195 C110.89599609 55.66700195 110.89599609 73.15700195 110.89599609 91.17700195 C59.41599609 91.17700195 7.93599609 91.17700195 -45.10400391 91.17700195 C-45.10400391 30.64080892 -45.10400391 30.64080892 -36.10400391 17.17700195 C-35.52650391 16.29012695 -34.94900391 15.40325195 -34.35400391 14.48950195 C-24.81796791 4.68857607 -13.46803099 0.04827251 0 0 Z " fill="#525E66" transform="translate(685.10400390625,196.822998046875)"/>
<path d="M0 0 C51.48 0 102.96 0 156 0 C156 18.81 156 37.62 156 57 C104.52 57.33 53.04 57.66 0 58 C0 38.86 0 19.72 0 0 Z " fill="#D5D8DC" transform="translate(640,288)"/>
<path d="M0 0 C23.76 0 47.52 0 72 0 C68.97931816 6.04136367 66.02222177 11.86709725 62.5625 17.625 C59.48278587 22.78931504 56.43571097 27.96854281 53.44921875 33.1875 C52.8368335 34.25274902 52.22444824 35.31799805 51.59350586 36.41552734 C50.38952212 38.51161663 49.19087141 40.61078072 47.99829102 42.71337891 C39.6620123 57.17058432 39.6620123 57.17058432 34.82324219 58.67822266 C34.22157227 58.78440918 33.61990234 58.8905957 33 59 C32.73010254 58.27828613 32.46020508 57.55657227 32.18212891 56.81298828 C31.01055465 54.02511579 29.65525945 51.57473386 28.0859375 48.9921875 C27.4969165 48.01773682 26.90789551 47.04328613 26.30102539 46.03930664 C25.66543701 44.99508545 25.02984863 43.95086426 24.375 42.875 C23.02679032 40.64226117 21.67915527 38.40917528 20.33203125 36.17578125 C19.62060952 34.99820719 18.90918368 33.82063561 18.19775391 32.64306641 C14.8281811 27.06119165 11.47574795 21.46918095 8.13922119 15.86749268 C7.42215256 14.66541395 6.70336396 13.46435953 5.98284912 12.26434326 C4.97538787 10.58621383 3.97387664 8.90451661 2.97265625 7.22265625 C2.39781494 6.26109619 1.82297363 5.29953613 1.23071289 4.30883789 C0 2 0 2 0 0 Z " fill="#515D65" transform="translate(682,752)"/>
<path d="M0 0 C16.83 0 33.66 0 51 0 C51 104.28 51 208.56 51 316 C50.34 316 49.68 316 49 316 C49 212.38 49 108.76 49 2 C33.16 2 17.32 2 1 2 C1 71.3 1 140.6 1 212 C0.67 212 0.34 212 0 212 C0 142.04 0 72.08 0 0 Z " fill="#B2B9BE" transform="translate(641,345)"/>
</svg>
