<svg width="35" height="35" viewBox="0 0 35 35" fill="none" xmlns="http://www.w3.org/2000/svg">
<path d="M24.7917 32.0834C23.5764 32.0834 22.5434 31.658 21.6927 30.8073C20.842 29.9566 20.4167 28.9236 20.4167 27.7084C20.4167 27.5625 20.4531 27.2222 20.5261 26.6875L10.2813 20.7084C9.89238 21.0729 9.44273 21.3585 8.93231 21.5651C8.4219 21.7717 7.87502 21.875 7.29169 21.875C6.07641 21.875 5.04342 21.4497 4.19273 20.599C3.34203 19.7483 2.91669 18.7153 2.91669 17.5C2.91669 16.2847 3.34203 15.2518 4.19273 14.4011C5.04342 13.5504 6.07641 13.125 7.29169 13.125C7.87502 13.125 8.4219 13.2283 8.93231 13.4349C9.44273 13.6415 9.89238 13.9271 10.2813 14.2917L20.5261 8.31252C20.4775 8.14238 20.4471 7.97832 20.4349 7.82033C20.4228 7.66235 20.4167 7.48613 20.4167 7.29169C20.4167 6.07641 20.842 5.04342 21.6927 4.19273C22.5434 3.34203 23.5764 2.91669 24.7917 2.91669C26.007 2.91669 27.04 3.34203 27.8906 4.19273C28.7413 5.04342 29.1667 6.07641 29.1667 7.29169C29.1667 8.50696 28.7413 9.53995 27.8906 10.3906C27.04 11.2413 26.007 11.6667 24.7917 11.6667C24.2084 11.6667 23.6615 11.5634 23.1511 11.3568C22.6406 11.1502 22.191 10.8646 21.8021 10.5L11.5573 16.4792C11.6059 16.6493 11.6363 16.8134 11.6485 16.9714C11.6606 17.1294 11.6667 17.3056 11.6667 17.5C11.6667 17.6945 11.6606 17.8707 11.6485 18.0287C11.6363 18.1867 11.6059 18.3507 11.5573 18.5209L21.8021 24.5C22.191 24.1354 22.6406 23.8498 23.1511 23.6432C23.6615 23.4367 24.2084 23.3334 24.7917 23.3334C26.007 23.3334 27.04 23.7587 27.8906 24.6094C28.7413 25.4601 29.1667 26.4931 29.1667 27.7084C29.1667 28.9236 28.7413 29.9566 27.8906 30.8073C27.04 31.658 26.007 32.0834 24.7917 32.0834Z" fill="#1D1B20"/>
</svg>
