<svg width="35" height="35" viewBox="0 0 35 35" fill="none" xmlns="http://www.w3.org/2000/svg">
<path d="M30.9896 22.8958V8.73176C30.9896 6.11969 28.8803 4.01041 26.2682 4.01041H8.73179C6.11972 4.01041 4.01044 6.11969 4.01044 8.73176V26.2682C4.01044 28.8803 6.11972 30.9896 8.73179 30.9896H22.8959L30.9896 22.8958ZM8.73179 28.2917C7.61583 28.2917 6.70835 27.3842 6.70835 26.2682V8.73176C6.70835 7.6158 7.61583 6.70832 8.73179 6.70832H26.2682C27.3842 6.70832 28.2917 7.6158 28.2917 8.73176V21.5469H26.2682C23.6562 21.5469 21.5469 23.6561 21.5469 26.2682V28.2917H8.73179ZM14.4833 14.5078C14.1276 13.2569 12.8277 12.5211 11.5769 12.8767C10.326 13.2324 9.59022 14.5323 9.94585 15.7954C10.044 16.1388 10.2156 16.4453 10.4364 16.7029L14.5323 15.5501C14.5936 15.2068 14.5814 14.8511 14.4833 14.5078ZM22.9204 12.1287C22.577 10.8778 21.2648 10.142 20.014 10.4977C18.7631 10.8533 18.0273 12.1532 18.383 13.4163C18.4811 13.7597 18.6528 14.0663 18.8735 14.3238L22.9694 13.1711C23.0307 12.8277 23.0185 12.4721 22.9204 12.1287ZM24.1222 16.3472L11.1231 20.014C12.8768 22.3317 15.9181 23.4599 18.8735 22.626C21.829 21.7921 23.8279 19.2291 24.1222 16.3472Z" fill="#1D1B20"/>
</svg>
