<svg width="35" height="35" viewBox="0 0 35 35" fill="none" xmlns="http://www.w3.org/2000/svg">
<path d="M13.125 24.0625C12.1042 24.0625 11.2413 23.7101 10.5365 23.0052C9.8316 22.3003 9.47917 21.4375 9.47917 20.4167C9.47917 19.3958 9.8316 18.533 10.5365 17.8281C11.2413 17.1233 12.1042 16.7708 13.125 16.7708C14.1458 16.7708 15.0087 17.1233 15.7135 17.8281C16.4184 18.533 16.7708 19.3958 16.7708 20.4167C16.7708 21.4375 16.4184 22.3003 15.7135 23.0052C15.0087 23.7101 14.1458 24.0625 13.125 24.0625ZM7.29167 32.0833C6.48958 32.0833 5.80295 31.7977 5.23177 31.2266C4.66059 30.6554 4.375 29.9687 4.375 29.1667V8.74999C4.375 7.94791 4.66059 7.26127 5.23177 6.69009C5.80295 6.11891 6.48958 5.83332 7.29167 5.83332H8.75V2.91666H11.6667V5.83332H23.3333V2.91666H26.25V5.83332H27.7083C28.5104 5.83332 29.1971 6.11891 29.7682 6.69009C30.3394 7.26127 30.625 7.94791 30.625 8.74999V29.1667C30.625 29.9687 30.3394 30.6554 29.7682 31.2266C29.1971 31.7977 28.5104 32.0833 27.7083 32.0833H7.29167ZM7.29167 29.1667H27.7083V14.5833H7.29167V29.1667Z" fill="#1D1B20"/>
</svg>
