<svg width="103" height="103" viewBox="0 0 103 103" fill="none" xmlns="http://www.w3.org/2000/svg">
<path d="M91.5556 14.3055H11.4444C8.40919 14.3055 5.49825 15.5113 3.352 17.6575C1.20575 19.8038 0 22.7147 0 25.75L0 51.5H103V25.75C103 22.7147 101.794 19.8038 99.648 17.6575C97.5017 15.5113 94.5908 14.3055 91.5556 14.3055Z" fill="#DC1F26"/>
<path d="M103 77.25C103 80.2853 101.794 83.1962 99.648 85.3424C97.5017 87.4887 94.5908 88.6944 91.5556 88.6944H11.4444C8.40919 88.6944 5.49825 87.4887 3.352 85.3424C1.20575 83.1962 0 80.2853 0 77.25V51.5H103V77.25Z" fill="#EEEEEE"/>
</svg>
