<svg width="30" height="26" viewBox="0 0 30 26" fill="none" xmlns="http://www.w3.org/2000/svg">
<path d="M14.8559 25.776C14.5093 25.776 14.1567 25.7153 13.7982 25.5938C13.4397 25.4722 13.1237 25.2778 12.8504 25.0104L10.2877 22.7135C7.66318 20.3559 5.29217 18.0167 3.17471 15.696C1.05725 13.3753 -0.0009897 10.8169 6.94526e-07 8.02083C6.94526e-07 5.73611 0.779936 3.82812 2.33981 2.29687C3.89968 0.765625 5.84333 0 8.17075 0C9.48303 0 10.721 0.273194 11.8847 0.819583C13.0484 1.36597 14.0388 2.11361 14.8559 3.0625C15.673 2.11458 16.6634 1.36743 17.8271 0.821042C18.9908 0.274653 20.2288 0.000972222 21.5411 0C23.8685 0 25.8122 0.765625 27.372 2.29687C28.9319 3.82812 29.7118 5.73611 29.7118 8.02083C29.7118 10.816 28.6595 13.3802 26.555 15.7135C24.4504 18.0469 22.061 20.3924 19.387 22.75L16.8615 25.0104C16.5891 25.2778 16.2737 25.4722 15.9151 25.5938C15.5566 25.7153 15.2035 25.776 14.8559 25.776Z" fill="#FF0000"/>
</svg>
